<mxfile host="app.diagrams.net" modified="2023-12-12T07:55:30.054Z" agent="Mozilla/5.0 (Macintosh; Intel Mac OS X 10_15_7) AppleWebKit/537.36 (KHTML, like Gecko) Chrome/118.0.0.0 Safari/537.36" etag="-U30mVNu9L3LXfUPJrnv" version="22.1.7" type="github">
  <diagram name="Page-1" id="O5xp4HRn_wAVqwUjP3aK">
    <mxGraphModel dx="1147" dy="1801" grid="1" gridSize="10" guides="1" tooltips="1" connect="1" arrows="1" fold="1" page="1" pageScale="1" pageWidth="827" pageHeight="1169" math="0" shadow="0">
      <root>
        <mxCell id="0" />
        <mxCell id="1" parent="0" />
        <mxCell id="kMprH6ETdgcOiTL6cREe-10" style="edgeStyle=orthogonalEdgeStyle;rounded=0;orthogonalLoop=1;jettySize=auto;html=1;entryX=0.5;entryY=0;entryDx=0;entryDy=0;" edge="1" parent="1" source="kMprH6ETdgcOiTL6cREe-4" target="kMprH6ETdgcOiTL6cREe-8">
          <mxGeometry relative="1" as="geometry" />
        </mxCell>
        <mxCell id="kMprH6ETdgcOiTL6cREe-11" style="edgeStyle=orthogonalEdgeStyle;rounded=0;orthogonalLoop=1;jettySize=auto;html=1;entryX=0.5;entryY=0;entryDx=0;entryDy=0;" edge="1" parent="1" source="kMprH6ETdgcOiTL6cREe-4" target="kMprH6ETdgcOiTL6cREe-7">
          <mxGeometry relative="1" as="geometry" />
        </mxCell>
        <mxCell id="kMprH6ETdgcOiTL6cREe-12" style="edgeStyle=orthogonalEdgeStyle;rounded=0;orthogonalLoop=1;jettySize=auto;html=1;entryX=0.5;entryY=0;entryDx=0;entryDy=0;" edge="1" parent="1" source="kMprH6ETdgcOiTL6cREe-4" target="kMprH6ETdgcOiTL6cREe-9">
          <mxGeometry relative="1" as="geometry" />
        </mxCell>
        <mxCell id="kMprH6ETdgcOiTL6cREe-4" value="Tenant Filter" style="rhombus;whiteSpace=wrap;html=1;" vertex="1" parent="1">
          <mxGeometry x="375" y="130" width="80" height="80" as="geometry" />
        </mxCell>
        <mxCell id="kMprH6ETdgcOiTL6cREe-6" style="edgeStyle=orthogonalEdgeStyle;rounded=0;orthogonalLoop=1;jettySize=auto;html=1;entryX=0.5;entryY=0;entryDx=0;entryDy=0;" edge="1" parent="1" source="kMprH6ETdgcOiTL6cREe-5" target="kMprH6ETdgcOiTL6cREe-4">
          <mxGeometry relative="1" as="geometry" />
        </mxCell>
        <mxCell id="kMprH6ETdgcOiTL6cREe-5" value="order" style="rounded=0;whiteSpace=wrap;html=1;" vertex="1" parent="1">
          <mxGeometry x="355" y="10" width="120" height="60" as="geometry" />
        </mxCell>
        <mxCell id="kMprH6ETdgcOiTL6cREe-7" value="Tenant A" style="swimlane;whiteSpace=wrap;html=1;" vertex="1" parent="1">
          <mxGeometry x="150" y="280" width="150" height="200" as="geometry" />
        </mxCell>
        <mxCell id="kMprH6ETdgcOiTL6cREe-8" value="Tenant B" style="swimlane;whiteSpace=wrap;html=1;" vertex="1" parent="1">
          <mxGeometry x="340" y="280" width="150" height="200" as="geometry" />
        </mxCell>
        <mxCell id="kMprH6ETdgcOiTL6cREe-9" value="Tenant ..." style="swimlane;whiteSpace=wrap;html=1;" vertex="1" parent="1">
          <mxGeometry x="524" y="280" width="150" height="200" as="geometry" />
        </mxCell>
        <mxCell id="kMprH6ETdgcOiTL6cREe-13" value="Particular Tenant&amp;nbsp; (Example: Palmpay)" style="swimlane;whiteSpace=wrap;html=1;" vertex="1" parent="1">
          <mxGeometry x="92" y="680" width="640" height="470" as="geometry" />
        </mxCell>
        <mxCell id="kMprH6ETdgcOiTL6cREe-19" style="edgeStyle=orthogonalEdgeStyle;rounded=0;orthogonalLoop=1;jettySize=auto;html=1;entryX=0.5;entryY=0;entryDx=0;entryDy=0;" edge="1" parent="kMprH6ETdgcOiTL6cREe-13" source="kMprH6ETdgcOiTL6cREe-14" target="kMprH6ETdgcOiTL6cREe-15">
          <mxGeometry relative="1" as="geometry" />
        </mxCell>
        <mxCell id="kMprH6ETdgcOiTL6cREe-20" style="edgeStyle=orthogonalEdgeStyle;rounded=0;orthogonalLoop=1;jettySize=auto;html=1;entryX=0.5;entryY=0;entryDx=0;entryDy=0;" edge="1" parent="kMprH6ETdgcOiTL6cREe-13" source="kMprH6ETdgcOiTL6cREe-14" target="kMprH6ETdgcOiTL6cREe-17">
          <mxGeometry relative="1" as="geometry" />
        </mxCell>
        <mxCell id="kMprH6ETdgcOiTL6cREe-21" style="edgeStyle=orthogonalEdgeStyle;rounded=0;orthogonalLoop=1;jettySize=auto;html=1;entryX=0.5;entryY=0;entryDx=0;entryDy=0;" edge="1" parent="kMprH6ETdgcOiTL6cREe-13" source="kMprH6ETdgcOiTL6cREe-14" target="kMprH6ETdgcOiTL6cREe-18">
          <mxGeometry relative="1" as="geometry" />
        </mxCell>
        <mxCell id="kMprH6ETdgcOiTL6cREe-14" value="Business Type Filter" style="rhombus;whiteSpace=wrap;html=1;" vertex="1" parent="kMprH6ETdgcOiTL6cREe-13">
          <mxGeometry x="280" y="80" width="80" height="80" as="geometry" />
        </mxCell>
        <mxCell id="kMprH6ETdgcOiTL6cREe-15" value="Airtime" style="swimlane;whiteSpace=wrap;html=1;" vertex="1" parent="kMprH6ETdgcOiTL6cREe-13">
          <mxGeometry x="40" y="240" width="150" height="200" as="geometry" />
        </mxCell>
        <mxCell id="kMprH6ETdgcOiTL6cREe-17" value="Transfer" style="swimlane;whiteSpace=wrap;html=1;" vertex="1" parent="kMprH6ETdgcOiTL6cREe-13">
          <mxGeometry x="245" y="240" width="150" height="200" as="geometry" />
        </mxCell>
        <mxCell id="kMprH6ETdgcOiTL6cREe-18" value="POS...." style="swimlane;whiteSpace=wrap;html=1;" vertex="1" parent="kMprH6ETdgcOiTL6cREe-13">
          <mxGeometry x="430" y="240" width="150" height="200" as="geometry" />
        </mxCell>
        <mxCell id="kMprH6ETdgcOiTL6cREe-23" style="edgeStyle=orthogonalEdgeStyle;rounded=0;orthogonalLoop=1;jettySize=auto;html=1;entryX=0.5;entryY=0;entryDx=0;entryDy=0;" edge="1" parent="1" source="kMprH6ETdgcOiTL6cREe-22" target="kMprH6ETdgcOiTL6cREe-14">
          <mxGeometry relative="1" as="geometry" />
        </mxCell>
        <mxCell id="kMprH6ETdgcOiTL6cREe-22" value="order" style="rounded=0;whiteSpace=wrap;html=1;" vertex="1" parent="1">
          <mxGeometry x="352" y="570" width="120" height="60" as="geometry" />
        </mxCell>
        <mxCell id="kMprH6ETdgcOiTL6cREe-24" value="Route Order" style="swimlane;whiteSpace=wrap;html=1;" vertex="1" parent="1">
          <mxGeometry x="442" y="-830" width="200" height="580" as="geometry" />
        </mxCell>
        <mxCell id="kMprH6ETdgcOiTL6cREe-25" value="Palmpay Standard Code History" style="rounded=0;whiteSpace=wrap;html=1;fillColor=#d5e8d4;gradientColor=#97d077;strokeColor=#82b366;" vertex="1" parent="kMprH6ETdgcOiTL6cREe-24">
          <mxGeometry x="1" y="477.5" width="198" height="30" as="geometry" />
        </mxCell>
        <mxCell id="kMprH6ETdgcOiTL6cREe-26" value="Channel Response Code" style="rounded=0;whiteSpace=wrap;html=1;fillColor=#fff2cc;gradientColor=#ffd966;strokeColor=#d6b656;" vertex="1" parent="kMprH6ETdgcOiTL6cREe-24">
          <mxGeometry x="1" y="507.5" width="198" height="30" as="geometry" />
        </mxCell>
        <mxCell id="kMprH6ETdgcOiTL6cREe-27" value="Channel Response Code History" style="rounded=0;whiteSpace=wrap;html=1;fillColor=#fff2cc;gradientColor=#ffd966;strokeColor=#d6b656;" vertex="1" parent="kMprH6ETdgcOiTL6cREe-24">
          <mxGeometry x="1" y="537.5" width="198" height="30" as="geometry" />
        </mxCell>
        <mxCell id="kMprH6ETdgcOiTL6cREe-28" value="Route Order ID" style="rounded=0;whiteSpace=wrap;html=1;fillColor=#e6d0de;gradientColor=#d5739d;strokeColor=#996185;" vertex="1" parent="kMprH6ETdgcOiTL6cREe-24">
          <mxGeometry x="1" y="24" width="198" height="30" as="geometry" />
        </mxCell>
        <mxCell id="kMprH6ETdgcOiTL6cREe-29" value="Tenant ID" style="rounded=0;whiteSpace=wrap;html=1;fillColor=#f5f5f5;gradientColor=#b3b3b3;strokeColor=#666666;" vertex="1" parent="kMprH6ETdgcOiTL6cREe-24">
          <mxGeometry x="1" y="79" width="198" height="30" as="geometry" />
        </mxCell>
        <mxCell id="kMprH6ETdgcOiTL6cREe-30" value="Session ID" style="rounded=0;whiteSpace=wrap;html=1;fillColor=#f5f5f5;gradientColor=#b3b3b3;strokeColor=#666666;" vertex="1" parent="kMprH6ETdgcOiTL6cREe-24">
          <mxGeometry x="1" y="109" width="198" height="30" as="geometry" />
        </mxCell>
        <mxCell id="kMprH6ETdgcOiTL6cREe-31" value="Transaction ID" style="rounded=0;whiteSpace=wrap;html=1;fillColor=#f5f5f5;gradientColor=#b3b3b3;strokeColor=#666666;" vertex="1" parent="kMprH6ETdgcOiTL6cREe-24">
          <mxGeometry x="1" y="139" width="198" height="30" as="geometry" />
        </mxCell>
        <mxCell id="kMprH6ETdgcOiTL6cREe-32" value="Country" style="rounded=0;whiteSpace=wrap;html=1;fillColor=#dae8fc;gradientColor=#7ea6e0;strokeColor=#6c8ebf;" vertex="1" parent="kMprH6ETdgcOiTL6cREe-24">
          <mxGeometry x="1" y="193" width="198" height="30" as="geometry" />
        </mxCell>
        <mxCell id="kMprH6ETdgcOiTL6cREe-33" value="Institution" style="rounded=0;whiteSpace=wrap;html=1;fillColor=#dae8fc;gradientColor=#7ea6e0;strokeColor=#6c8ebf;" vertex="1" parent="kMprH6ETdgcOiTL6cREe-24">
          <mxGeometry x="1" y="223" width="198" height="30" as="geometry" />
        </mxCell>
        <mxCell id="kMprH6ETdgcOiTL6cREe-34" value="Business Type" style="rounded=0;whiteSpace=wrap;html=1;fillColor=#dae8fc;gradientColor=#7ea6e0;strokeColor=#6c8ebf;" vertex="1" parent="kMprH6ETdgcOiTL6cREe-24">
          <mxGeometry x="1" y="253" width="198" height="30" as="geometry" />
        </mxCell>
        <mxCell id="kMprH6ETdgcOiTL6cREe-35" value="Business Params" style="rounded=0;whiteSpace=wrap;html=1;fillColor=#dae8fc;gradientColor=#7ea6e0;strokeColor=#6c8ebf;" vertex="1" parent="kMprH6ETdgcOiTL6cREe-24">
          <mxGeometry x="1" y="283" width="198" height="30" as="geometry" />
        </mxCell>
        <mxCell id="kMprH6ETdgcOiTL6cREe-36" value="Channel" style="rounded=0;whiteSpace=wrap;html=1;fillColor=#ffcd28;gradientColor=#ffa500;strokeColor=#d79b00;" vertex="1" parent="kMprH6ETdgcOiTL6cREe-24">
          <mxGeometry x="1" y="338" width="198" height="30" as="geometry" />
        </mxCell>
        <mxCell id="kMprH6ETdgcOiTL6cREe-37" value="Channel History" style="rounded=0;whiteSpace=wrap;html=1;fillColor=#ffcd28;gradientColor=#ffa500;strokeColor=#d79b00;" vertex="1" parent="kMprH6ETdgcOiTL6cREe-24">
          <mxGeometry x="1" y="367" width="198" height="30" as="geometry" />
        </mxCell>
        <mxCell id="kMprH6ETdgcOiTL6cREe-38" value="Transaction Status" style="rounded=0;whiteSpace=wrap;html=1;fillColor=#d5e8d4;gradientColor=#97d077;strokeColor=#82b366;" vertex="1" parent="kMprH6ETdgcOiTL6cREe-24">
          <mxGeometry x="1" y="417" width="198" height="30" as="geometry" />
        </mxCell>
        <mxCell id="kMprH6ETdgcOiTL6cREe-39" value="Palmpay Standard Code" style="rounded=0;whiteSpace=wrap;html=1;fillColor=#d5e8d4;gradientColor=#97d077;strokeColor=#82b366;" vertex="1" parent="kMprH6ETdgcOiTL6cREe-24">
          <mxGeometry x="1" y="447" width="198" height="30" as="geometry" />
        </mxCell>
        <mxCell id="kMprH6ETdgcOiTL6cREe-40" value="Down Stream Identity" style="rounded=0;whiteSpace=wrap;html=1;fillColor=#f5f5f5;gradientColor=#b3b3b3;strokeColor=#666666;" vertex="1" parent="1">
          <mxGeometry x="182" y="-735" width="200" height="30" as="geometry" />
        </mxCell>
        <mxCell id="kMprH6ETdgcOiTL6cREe-41" value="Inner Identity" style="rounded=0;whiteSpace=wrap;html=1;fillColor=#e6d0de;gradientColor=#d5739d;strokeColor=#996185;" vertex="1" parent="1">
          <mxGeometry x="182" y="-830" width="200" height="30" as="geometry" />
        </mxCell>
        <mxCell id="kMprH6ETdgcOiTL6cREe-42" value="Business Params" style="rounded=0;whiteSpace=wrap;html=1;fillColor=#dae8fc;gradientColor=#7ea6e0;strokeColor=#6c8ebf;" vertex="1" parent="1">
          <mxGeometry x="182" y="-640" width="200" height="30" as="geometry" />
        </mxCell>
        <mxCell id="kMprH6ETdgcOiTL6cREe-43" value="Route Determination Result" style="rounded=0;whiteSpace=wrap;html=1;fillColor=#ffcd28;gradientColor=#ffa500;strokeColor=#d79b00;" vertex="1" parent="1">
          <mxGeometry x="182" y="-545" width="198" height="30" as="geometry" />
        </mxCell>
        <mxCell id="kMprH6ETdgcOiTL6cREe-44" value="Generate In Channel Gateway" style="rounded=0;whiteSpace=wrap;html=1;fillColor=#d5e8d4;gradientColor=#97d077;strokeColor=#82b366;" vertex="1" parent="1">
          <mxGeometry x="183" y="-450" width="198" height="30" as="geometry" />
        </mxCell>
        <mxCell id="kMprH6ETdgcOiTL6cREe-45" value="Get From Channel" style="rounded=0;whiteSpace=wrap;html=1;fillColor=#fff2cc;gradientColor=#ffd966;strokeColor=#d6b656;" vertex="1" parent="1">
          <mxGeometry x="184" y="-355" width="198" height="30" as="geometry" />
        </mxCell>
        <mxCell id="kMprH6ETdgcOiTL6cREe-47" value="Particular Business Type (Example:Transfer)" style="swimlane;whiteSpace=wrap;html=1;" vertex="1" parent="1">
          <mxGeometry x="95" y="1450" width="640" height="470" as="geometry" />
        </mxCell>
        <mxCell id="kMprH6ETdgcOiTL6cREe-54" style="edgeStyle=orthogonalEdgeStyle;rounded=0;orthogonalLoop=1;jettySize=auto;html=1;entryX=0.5;entryY=0;entryDx=0;entryDy=0;" edge="1" parent="kMprH6ETdgcOiTL6cREe-47" source="kMprH6ETdgcOiTL6cREe-49" target="kMprH6ETdgcOiTL6cREe-50">
          <mxGeometry relative="1" as="geometry" />
        </mxCell>
        <mxCell id="kMprH6ETdgcOiTL6cREe-55" style="edgeStyle=orthogonalEdgeStyle;rounded=0;orthogonalLoop=1;jettySize=auto;html=1;entryX=0.5;entryY=0;entryDx=0;entryDy=0;" edge="1" parent="kMprH6ETdgcOiTL6cREe-47" source="kMprH6ETdgcOiTL6cREe-49" target="kMprH6ETdgcOiTL6cREe-51">
          <mxGeometry relative="1" as="geometry" />
        </mxCell>
        <mxCell id="kMprH6ETdgcOiTL6cREe-56" style="edgeStyle=orthogonalEdgeStyle;rounded=0;orthogonalLoop=1;jettySize=auto;html=1;entryX=0.5;entryY=0;entryDx=0;entryDy=0;" edge="1" parent="kMprH6ETdgcOiTL6cREe-47" source="kMprH6ETdgcOiTL6cREe-49" target="kMprH6ETdgcOiTL6cREe-52">
          <mxGeometry relative="1" as="geometry" />
        </mxCell>
        <mxCell id="kMprH6ETdgcOiTL6cREe-49" value="Group Filter" style="rhombus;whiteSpace=wrap;html=1;" vertex="1" parent="kMprH6ETdgcOiTL6cREe-47">
          <mxGeometry x="277" y="80" width="80" height="80" as="geometry" />
        </mxCell>
        <mxCell id="kMprH6ETdgcOiTL6cREe-50" value="Group A" style="swimlane;whiteSpace=wrap;html=1;" vertex="1" parent="kMprH6ETdgcOiTL6cREe-47">
          <mxGeometry x="37" y="230" width="150" height="200" as="geometry" />
        </mxCell>
        <mxCell id="kMprH6ETdgcOiTL6cREe-51" value="Group B" style="swimlane;whiteSpace=wrap;html=1;" vertex="1" parent="kMprH6ETdgcOiTL6cREe-47">
          <mxGeometry x="242" y="230" width="150" height="200" as="geometry" />
        </mxCell>
        <mxCell id="kMprH6ETdgcOiTL6cREe-52" value="Group C" style="swimlane;whiteSpace=wrap;html=1;" vertex="1" parent="kMprH6ETdgcOiTL6cREe-47">
          <mxGeometry x="447" y="230" width="150" height="200" as="geometry" />
        </mxCell>
        <mxCell id="kMprH6ETdgcOiTL6cREe-53" style="edgeStyle=orthogonalEdgeStyle;rounded=0;orthogonalLoop=1;jettySize=auto;html=1;entryX=0.5;entryY=0;entryDx=0;entryDy=0;" edge="1" parent="1" source="kMprH6ETdgcOiTL6cREe-48" target="kMprH6ETdgcOiTL6cREe-49">
          <mxGeometry relative="1" as="geometry" />
        </mxCell>
        <mxCell id="kMprH6ETdgcOiTL6cREe-48" value="order" style="rounded=0;whiteSpace=wrap;html=1;" vertex="1" parent="1">
          <mxGeometry x="352" y="1290" width="120" height="60" as="geometry" />
        </mxCell>
        <mxCell id="kMprH6ETdgcOiTL6cREe-57" value="Particular Group" style="swimlane;whiteSpace=wrap;html=1;" vertex="1" parent="1">
          <mxGeometry x="92" y="2280" width="658" height="440" as="geometry" />
        </mxCell>
        <mxCell id="kMprH6ETdgcOiTL6cREe-68" style="edgeStyle=orthogonalEdgeStyle;rounded=0;orthogonalLoop=1;jettySize=auto;html=1;entryX=0.5;entryY=0;entryDx=0;entryDy=0;" edge="1" parent="kMprH6ETdgcOiTL6cREe-57" source="kMprH6ETdgcOiTL6cREe-62" target="kMprH6ETdgcOiTL6cREe-67">
          <mxGeometry relative="1" as="geometry" />
        </mxCell>
        <mxCell id="kMprH6ETdgcOiTL6cREe-62" value="Manual Policy" style="shape=process;whiteSpace=wrap;html=1;backgroundOutline=1;" vertex="1" parent="kMprH6ETdgcOiTL6cREe-57">
          <mxGeometry x="269" y="70" width="120" height="60" as="geometry" />
        </mxCell>
        <mxCell id="kMprH6ETdgcOiTL6cREe-71" style="edgeStyle=orthogonalEdgeStyle;rounded=0;orthogonalLoop=1;jettySize=auto;html=1;entryX=0.5;entryY=0;entryDx=0;entryDy=0;" edge="1" parent="kMprH6ETdgcOiTL6cREe-57" source="kMprH6ETdgcOiTL6cREe-67" target="kMprH6ETdgcOiTL6cREe-70">
          <mxGeometry relative="1" as="geometry" />
        </mxCell>
        <mxCell id="kMprH6ETdgcOiTL6cREe-67" value="Smart Policy" style="shape=process;whiteSpace=wrap;html=1;backgroundOutline=1;" vertex="1" parent="kMprH6ETdgcOiTL6cREe-57">
          <mxGeometry x="269" y="200" width="120" height="60" as="geometry" />
        </mxCell>
        <mxCell id="kMprH6ETdgcOiTL6cREe-70" value="Fallback Policy" style="shape=process;whiteSpace=wrap;html=1;backgroundOutline=1;" vertex="1" parent="kMprH6ETdgcOiTL6cREe-57">
          <mxGeometry x="269" y="320" width="120" height="60" as="geometry" />
        </mxCell>
        <mxCell id="kMprH6ETdgcOiTL6cREe-60" style="edgeStyle=orthogonalEdgeStyle;rounded=0;orthogonalLoop=1;jettySize=auto;html=1;entryX=0.5;entryY=0;entryDx=0;entryDy=0;" edge="1" parent="1" source="kMprH6ETdgcOiTL6cREe-58" target="kMprH6ETdgcOiTL6cREe-59">
          <mxGeometry relative="1" as="geometry" />
        </mxCell>
        <mxCell id="kMprH6ETdgcOiTL6cREe-58" value="order" style="rounded=0;whiteSpace=wrap;html=1;" vertex="1" parent="1">
          <mxGeometry x="361" y="2030" width="120" height="60" as="geometry" />
        </mxCell>
        <mxCell id="kMprH6ETdgcOiTL6cREe-63" style="edgeStyle=orthogonalEdgeStyle;rounded=0;orthogonalLoop=1;jettySize=auto;html=1;entryX=0.5;entryY=0;entryDx=0;entryDy=0;" edge="1" parent="1" source="kMprH6ETdgcOiTL6cREe-59" target="kMprH6ETdgcOiTL6cREe-62">
          <mxGeometry relative="1" as="geometry" />
        </mxCell>
        <mxCell id="kMprH6ETdgcOiTL6cREe-59" value="calculate &amp;amp; stick&lt;br&gt;labels" style="shape=process;whiteSpace=wrap;html=1;backgroundOutline=1;" vertex="1" parent="1">
          <mxGeometry x="361" y="2160" width="120" height="60" as="geometry" />
        </mxCell>
        <mxCell id="kMprH6ETdgcOiTL6cREe-64" value="End" style="rounded=1;whiteSpace=wrap;html=1;" vertex="1" parent="1">
          <mxGeometry x="361" y="2800" width="120" height="60" as="geometry" />
        </mxCell>
        <mxCell id="kMprH6ETdgcOiTL6cREe-65" style="edgeStyle=orthogonalEdgeStyle;rounded=0;orthogonalLoop=1;jettySize=auto;html=1;entryX=0.5;entryY=0;entryDx=0;entryDy=0;exitX=0;exitY=0.5;exitDx=0;exitDy=0;fillColor=#008a00;strokeColor=#005700;strokeWidth=2;" edge="1" parent="1" source="kMprH6ETdgcOiTL6cREe-62" target="kMprH6ETdgcOiTL6cREe-64">
          <mxGeometry relative="1" as="geometry">
            <Array as="points">
              <mxPoint x="200" y="2380" />
              <mxPoint x="200" y="2760" />
              <mxPoint x="420" y="2760" />
              <mxPoint x="420" y="2800" />
            </Array>
          </mxGeometry>
        </mxCell>
        <mxCell id="kMprH6ETdgcOiTL6cREe-66" value="hit the target" style="edgeLabel;html=1;align=center;verticalAlign=middle;resizable=0;points=[];" vertex="1" connectable="0" parent="kMprH6ETdgcOiTL6cREe-65">
          <mxGeometry x="-0.7587" y="-2" relative="1" as="geometry">
            <mxPoint y="-8" as="offset" />
          </mxGeometry>
        </mxCell>
        <mxCell id="kMprH6ETdgcOiTL6cREe-69" style="edgeStyle=orthogonalEdgeStyle;rounded=0;orthogonalLoop=1;jettySize=auto;html=1;entryX=0.5;entryY=0;entryDx=0;entryDy=0;exitX=0;exitY=0.5;exitDx=0;exitDy=0;fillColor=#008a00;strokeColor=#005700;strokeWidth=2;" edge="1" parent="1" source="kMprH6ETdgcOiTL6cREe-67" target="kMprH6ETdgcOiTL6cREe-64">
          <mxGeometry relative="1" as="geometry">
            <Array as="points">
              <mxPoint x="210" y="2510" />
              <mxPoint x="210" y="2760" />
              <mxPoint x="420" y="2760" />
              <mxPoint x="420" y="2790" />
              <mxPoint x="421" y="2790" />
            </Array>
          </mxGeometry>
        </mxCell>
        <mxCell id="kMprH6ETdgcOiTL6cREe-73" value="hit the target" style="edgeLabel;html=1;align=center;verticalAlign=middle;resizable=0;points=[];" vertex="1" connectable="0" parent="kMprH6ETdgcOiTL6cREe-69">
          <mxGeometry x="-0.7231" y="-2" relative="1" as="geometry">
            <mxPoint y="-8" as="offset" />
          </mxGeometry>
        </mxCell>
        <mxCell id="kMprH6ETdgcOiTL6cREe-72" style="edgeStyle=orthogonalEdgeStyle;rounded=0;orthogonalLoop=1;jettySize=auto;html=1;entryX=0.5;entryY=0;entryDx=0;entryDy=0;fillColor=#008a00;strokeColor=#005700;strokeWidth=2;" edge="1" parent="1" source="kMprH6ETdgcOiTL6cREe-70" target="kMprH6ETdgcOiTL6cREe-64">
          <mxGeometry relative="1" as="geometry" />
        </mxCell>
      </root>
    </mxGraphModel>
  </diagram>
</mxfile>
